<svg xmlns="http://www.w3.org/2000/svg" width="1100" height="640" viewBox="0 0 1100 640" fill="none">
  <rect x="40" y="40" width="1020" height="560" rx="30" fill="#EEF3FF"/>
  <rect x="88" y="92" width="260" height="456" rx="18" fill="#FFFFFF" stroke="#D4DDF8" stroke-width="4"/>
  <rect x="122" y="132" width="190" height="26" rx="13" fill="#DCE5FF"/>
  <rect x="122" y="178" width="132" height="18" rx="9" fill="#BFD0FF"/>
  <rect x="122" y="218" width="190" height="88" rx="14" fill="#F2F6FF"/>
  <rect x="122" y="324" width="190" height="88" rx="14" fill="#F2F6FF"/>
  <rect x="122" y="430" width="190" height="88" rx="14" fill="#F2F6FF"/>

  <rect x="380" y="92" width="672" height="268" rx="20" fill="#FFFFFF" stroke="#D4DDF8" stroke-width="4"/>
  <rect x="420" y="130" width="260" height="26" rx="13" fill="#DCE5FF"/>
  <rect x="420" y="172" width="580" height="20" rx="10" fill="#EEF3FF"/>
  <rect x="420" y="210" width="360" height="20" rx="10" fill="#EEF3FF"/>
  <rect x="420" y="258" width="132" height="56" rx="14" fill="#2F50F8"/>
  <rect x="572" y="258" width="132" height="56" rx="14" fill="#22C58A"/>
  <rect x="724" y="258" width="132" height="56" rx="14" fill="#C7D4FF"/>

  <rect x="380" y="384" width="324" height="164" rx="20" fill="#FFFFFF" stroke="#D4DDF8" stroke-width="4"/>
  <rect x="420" y="424" width="180" height="20" rx="10" fill="#DCE5FF"/>
  <rect x="420" y="458" width="244" height="18" rx="9" fill="#EEF3FF"/>
  <rect x="420" y="490" width="210" height="18" rx="9" fill="#EEF3FF"/>

  <rect x="728" y="384" width="324" height="164" rx="20" fill="#FFFFFF" stroke="#D4DDF8" stroke-width="4"/>
  <circle cx="792" cy="466" r="28" fill="#2F50F8"/>
  <circle cx="856" cy="466" r="28" fill="#22C58A"/>
  <circle cx="920" cy="466" r="28" fill="#C7D4FF"/>
</svg>
